<?xml version="1.0" encoding="UTF-8" standalone="no"?>
<svg
   xmlns:dc="http://purl.org/dc/elements/1.1/"
   xmlns:cc="http://creativecommons.org/ns#"
   xmlns:rdf="http://www.w3.org/1999/02/22-rdf-syntax-ns#"
   xmlns:svg="http://www.w3.org/2000/svg"
   xmlns="http://www.w3.org/2000/svg"
   xmlns:sodipodi="http://sodipodi.sourceforge.net/DTD/sodipodi-0.dtd"
   xmlns:inkscape="http://www.inkscape.org/namespaces/inkscape"
   viewBox="0 0 512 512"
   version="1.1"
   id="svg3767"
   sodipodi:docname="requests_stampede_logo.svg"
   inkscape:version="0.92.4 (5da689c313, 2019-01-14)">
  <metadata
     id="metadata3773">
    <rdf:RDF>
      <cc:Work
         rdf:about="">
        <dc:format>image/svg+xml</dc:format>
        <dc:type
           rdf:resource="http://purl.org/dc/dcmitype/StillImage" />
        <dc:title></dc:title>
      </cc:Work>
    </rdf:RDF>
  </metadata>
  <defs
     id="defs3771" />
  <sodipodi:namedview
     pagecolor="#ffffff"
     bordercolor="#666666"
     borderopacity="1"
     objecttolerance="10"
     gridtolerance="10"
     guidetolerance="10"
     inkscape:pageopacity="0"
     inkscape:pageshadow="2"
     inkscape:window-width="3836"
     inkscape:window-height="2131"
     id="namedview3769"
     showgrid="false"
     inkscape:zoom="2.6668422"
     inkscape:cx="215.58261"
     inkscape:cy="251.79176"
     inkscape:window-x="0"
     inkscape:window-y="25"
     inkscape:window-maximized="0"
     inkscape:current-layer="svg3767" />
  <path
     d="M 162.00299,40.150035 C 116.852,47.599036 62.563007,75.235036 30.361007,94.247036 V 276.35203 c 5.34,7.523 13.07,12.906 24.904,17.07 5.308,1.868 11.417,3.433 18.221,4.783 -21.112,-27.026 -26.391,-50.921 -21.297,-79.236 l 17.715,3.192 c -6.724,34.584 13.695,64.344 34.151993,77.013 l 7.15,4.37 2.407,3.814 c 9.482,17.063 28.03399,25.752 51.42599,41.152 l 9.723,6.403 -8.645,7.798 c -9.834,8.873 -17.062,16.44 -18.367,26.559 l -1.592,12.342 -24.09799,-11.545 c -11.192,12.316 -20.47,25.593 -27.652001,40.025 10.977001,6.704 36.524991,19.136 49.104991,16.346 32.21,-21.813 59.517,-67.5 71.09,-97.953 -6.484,-24.65 -21.778,-46.56 -40.277,-70.047 l -4.1,-5.205 c 4.853,-7.592 11.429,-14.973 18.084,-19.31 26.259,-20.873 35.437,-38.189 37.44,-53.362 0.675,-21.155 -6.159,-35.841 -14.106,-53.04 l 16.34,-7.55 c 9.207,20.935 17.712,44.638 15.611,62.947 -1.68,12.732 -7.198,25.876 -17.857,39.399 9.34,-1.382 16.555,-2.574 25.883,-4.121 l 0.262,10.343 c 0.44,17.375 1.668,24.569 15.748,49.57 l 1.554,2.763 -8.457,51.103 c 7.432,10.524 20.33,11.513 30.994,10.781 25.144,-26.855 42.492,-57.16 57.1,-89.058 -8.896,-1.83 -15.986,-6.023 -20.451,-11.895 -5.026,-6.609 -6.408,-14.801 -5.057,-22.137 2.702,-14.67 16.832,-27.65 34.66,-25.044 l -0.304,-0.04 c 4.278,0.478 8.63,0.829 13.035,1.09 -42.222,-45.878 -38.747,-104.57 -74.713,-138.819994 -37.98,-22.166 -89.34,-36.372001 -133.988,-36.701001 z m 299.657,133.016995 c -25.974,8.19 -52.938,16.89 -80.334,23.028 a 3126.23,3126.23 0 0 1 8.764,18.293 c 29.023,-10.805 51.564,-25.555 71.57,-41.32 z m 19.978,55.053 c -40.912,3.884 -85.203,8.795 -125.962,4.25 l -0.153,-0.017 -0.152,-0.022 c -8.297,-1.213 -13.24,4.437 -14.356,10.494 -0.557,3.029 -0.034,5.724 1.684,7.983 1.688,2.22 4.886,4.52 11.58,5.46 52.566,1.922 92.792,-11.677 127.36,-28.148 z m -163.32,43.738 c 4.068,-0.076 9.831,6.07 9.94,9.87 0.123,4.33 -4.278,13.351 -12.106,22.978 -2.335,-8.081 -8.27,-32.478 2.166,-32.848 z m -13.96,64.67 -19.882,19.58 c 0,0 -2.011,-12.095 1.621,-16.068 6.037,-2.969 12.016,-3.867 18.26,-3.512 z m -44.636,38.348 -11.55,35.494 c 0,0 -12.831,-12.815 -20.018,-10.535 -12.026,3.815 -17.207,33.71 -17.207,33.71 l -23.176,-9.13 c 0,0 3.691,28.627 14.748,34.416 15.559,8.145 51.621,-10.535 51.621,-10.535 0,0 1.372,21.203 9.483,23.176 15.088,3.669 35.467,-30.2 35.467,-30.2 0,0 36.32,34.765 51.972,23.88 14.938,-10.39 2.14,-52.38 -4.103,-54.432 -7.744,-2.546 -16.676,17.888 -16.676,17.888 0,0 -10.826,-24.025 -22.063,-27.017 -9.81,-2.613 -28.445,10.885 -28.445,10.885 l 5.393,-31.528 c -3.305,-0.031 -6.567,-0.272 -9.77,-0.781 l -10.37,29.932 4.347,-31.245 c -3.373,-0.936 -6.912,-2.436 -9.653,-3.978 z m -164.538991,2.213 c -11.612992,11.065 -20.068992,23.628 -27.236992,37.137 3.725,1.954 7.425,4.1 11.086,6.3 7.066,-13.88 15.859992,-26.738 26.147993,-38.648 z"
     id="path3765"
     style="fill:#000000"
     inkscape:connector-curvature="0" />
</svg>
